<svg xmlns="http://www.w3.org/2000/svg" width="512" height="512"
     viewBox="0 0 512 512">
  <defs>
    <linearGradient id="фон" gradientTransform="rotate(75 .5 .5)">
      <stop offset="0" stop-color="#FFFDF9"/>
      <stop offset=".55" stop-color="#F0EBE0"/>
      <stop offset="1" stop-color="#E4DDD0"/>
    </linearGradient>
    <linearGradient id="блик" x1="0" y1="0" x2="0" y2="1">
      <stop offset="0" stop-color="#FFFFFF" stop-opacity=".6"/>
      <stop offset=".45" stop-color="#FFFFFF" stop-opacity="0"/>
    </linearGradient>
    <linearGradient id="низ" x1="0" y1="0" x2="0" y2="1">
      <stop offset=".8" stop-color="#8C6E3C" stop-opacity="0"/>
      <stop offset="1" stop-color="#8C6E3C" stop-opacity=".14"/>
    </linearGradient>
    <filter id="тень" x="-20%" y="-20%" width="140%" height="140%">
      <feDropShadow dx="0" dy="34.6" stdDeviation="48.4"
                    flood-color="#5A4628" flood-opacity=".14"/>
    </filter>
    <clipPath id="кп"><rect x="62" y="62" width="388" height="388"
      rx="105"/></clipPath>
  </defs>

  <g filter="url(#тень)">
    <rect x="62" y="62" width="388" height="388" rx="105"
          fill="url(#фон)"/>
  </g>
  <g clip-path="url(#кп)">
    <rect x="62" y="62" width="388" height="388" fill="url(#блик)"/>
    <rect x="62" y="62" width="388" height="388" fill="url(#низ)"/>
    <rect x="62" y="68.9" width="388" height="388" rx="105"
          fill="none" stroke="#FFFFFF" stroke-opacity=".9" stroke-width="6.9"/>
  </g>
  <rect x="62" y="62" width="388" height="388" rx="105"
        fill="none" stroke="rgba(197,126,51,.35)" stroke-width="6.9"/>

  <g transform="translate(157.0 163.9) scale(8.250)"
     fill="none" stroke="#FFFFFF" stroke-opacity=".9" stroke-width="1.7"
     stroke-linecap="round" stroke-linejoin="round">
    <path d="M8.3 10a.7.7 0 0 1-.626-1.079L11.4 3a.7.7 0 0 1 1.198-.043L16.3 8.9a.7.7 0 0 1-.572 1.1Z" />
  <rect x="3" y="14" width="7" height="7" rx="1" />
  <circle cx="17.5" cy="17.5" r="3.5" />
  </g>
  <g transform="translate(157.0 157.0) scale(8.250)"
     fill="none" stroke="#B5722A" stroke-width="1.7" stroke-linecap="round"
     stroke-linejoin="round">
    <path d="M8.3 10a.7.7 0 0 1-.626-1.079L11.4 3a.7.7 0 0 1 1.198-.043L16.3 8.9a.7.7 0 0 1-.572 1.1Z" />
  <rect x="3" y="14" width="7" height="7" rx="1" />
  <circle cx="17.5" cy="17.5" r="3.5" />
  </g>
</svg>