<svg xmlns="http://www.w3.org/2000/svg" width="512" height="512"
     viewBox="0 0 512 512">
  <defs>
    <linearGradient id="фон" gradientTransform="rotate(75 .5 .5)">
      <stop offset="0" stop-color="#FFFDF9"/>
      <stop offset=".55" stop-color="#F0EBE0"/>
      <stop offset="1" stop-color="#E4DDD0"/>
    </linearGradient>
    <linearGradient id="блик" x1="0" y1="0" x2="0" y2="1">
      <stop offset="0" stop-color="#FFFFFF" stop-opacity=".6"/>
      <stop offset=".45" stop-color="#FFFFFF" stop-opacity="0"/>
    </linearGradient>
    <linearGradient id="низ" x1="0" y1="0" x2="0" y2="1">
      <stop offset=".8" stop-color="#3C566B" stop-opacity="0"/>
      <stop offset="1" stop-color="#3C566B" stop-opacity=".14"/>
    </linearGradient>
    <filter id="тень" x="-20%" y="-20%" width="140%" height="140%">
      <feDropShadow dx="0" dy="34.6" stdDeviation="48.4"
                    flood-color="#283850" flood-opacity=".14"/>
    </filter>
    <clipPath id="кп"><rect x="62" y="62" width="388" height="388"
      rx="105"/></clipPath>
  </defs>

  <g filter="url(#тень)">
    <rect x="62" y="62" width="388" height="388" rx="105"
          fill="url(#фон)"/>
  </g>
  <g clip-path="url(#кп)">
    <rect x="62" y="62" width="388" height="388" fill="url(#блик)"/>
    <rect x="62" y="62" width="388" height="388" fill="url(#низ)"/>
    <rect x="62" y="68.9" width="388" height="388" rx="105"
          fill="none" stroke="#FFFFFF" stroke-opacity=".9" stroke-width="6.9"/>
  </g>
  <rect x="62" y="62" width="388" height="388" rx="105"
        fill="none" stroke="rgba(58,110,165,.35)" stroke-width="6.9"/>

  <g transform="translate(157.0 163.9) scale(8.250)"
     fill="none" stroke="#FFFFFF" stroke-opacity=".9" stroke-width="1.7"
     stroke-linecap="round" stroke-linejoin="round">
    <path d="M11 6a13 13 0 0 0 8.4-2.8A1 1 0 0 1 21 4v12a1 1 0 0 1-1.6.8A13 13 0 0 0 11 14H5a2 2 0 0 1-2-2V8a2 2 0 0 1 2-2z" />
  <path d="M6 14a12 12 0 0 0 2.4 7.2 2 2 0 0 0 3.2-2.4A8 8 0 0 1 10 14" />
  <path d="M8 6v8" />
  </g>
  <g transform="translate(157.0 157.0) scale(8.250)"
     fill="none" stroke="#3A6EA5" stroke-width="1.7" stroke-linecap="round"
     stroke-linejoin="round">
    <path d="M11 6a13 13 0 0 0 8.4-2.8A1 1 0 0 1 21 4v12a1 1 0 0 1-1.6.8A13 13 0 0 0 11 14H5a2 2 0 0 1-2-2V8a2 2 0 0 1 2-2z" />
  <path d="M6 14a12 12 0 0 0 2.4 7.2 2 2 0 0 0 3.2-2.4A8 8 0 0 1 10 14" />
  <path d="M8 6v8" />
  </g>
</svg>