<svg xmlns="http://www.w3.org/2000/svg" width="512" height="512"
     viewBox="0 0 512 512">
  <defs>
    <linearGradient id="фон" gradientTransform="rotate(75 .5 .5)">
      <stop offset="0" stop-color="#FFFDF9"/>
      <stop offset=".55" stop-color="#F0EBE0"/>
      <stop offset="1" stop-color="#E4DDD0"/>
    </linearGradient>
    <linearGradient id="блик" x1="0" y1="0" x2="0" y2="1">
      <stop offset="0" stop-color="#FFFFFF" stop-opacity=".6"/>
      <stop offset=".45" stop-color="#FFFFFF" stop-opacity="0"/>
    </linearGradient>
    <linearGradient id="низ" x1="0" y1="0" x2="0" y2="1">
      <stop offset=".8" stop-color="#3C566B" stop-opacity="0"/>
      <stop offset="1" stop-color="#3C566B" stop-opacity=".14"/>
    </linearGradient>
    <filter id="тень" x="-20%" y="-20%" width="140%" height="140%">
      <feDropShadow dx="0" dy="34.6" stdDeviation="48.4"
                    flood-color="#283850" flood-opacity=".14"/>
    </filter>
    <clipPath id="кп"><rect x="62" y="62" width="388" height="388"
      rx="105"/></clipPath>
  </defs>

  <g filter="url(#тень)">
    <rect x="62" y="62" width="388" height="388" rx="105"
          fill="url(#фон)"/>
  </g>
  <g clip-path="url(#кп)">
    <rect x="62" y="62" width="388" height="388" fill="url(#блик)"/>
    <rect x="62" y="62" width="388" height="388" fill="url(#низ)"/>
    <rect x="62" y="68.9" width="388" height="388" rx="105"
          fill="none" stroke="#FFFFFF" stroke-opacity=".9" stroke-width="6.9"/>
  </g>
  <rect x="62" y="62" width="388" height="388" rx="105"
        fill="none" stroke="rgba(58,110,165,.35)" stroke-width="6.9"/>

  <g transform="translate(157.0 163.9) scale(8.250)"
     fill="none" stroke="#FFFFFF" stroke-opacity=".9" stroke-width="1.7"
     stroke-linecap="round" stroke-linejoin="round">
    <path d="M12 16h.01" />
  <path d="M16 16h.01" />
  <path d="M3 19a2 2 0 0 0 2 2h14a2 2 0 0 0 2-2V8.5a.5.5 0 0 0-.769-.422l-4.462 2.844A.5.5 0 0 1 15 10.5v-2a.5.5 0 0 0-.769-.422L9.77 10.922A.5.5 0 0 1 9 10.5V5a2 2 0 0 0-2-2H5a2 2 0 0 0-2 2z" />
  <path d="M8 16h.01" />
  </g>
  <g transform="translate(157.0 157.0) scale(8.250)"
     fill="none" stroke="#3A6EA5" stroke-width="1.7" stroke-linecap="round"
     stroke-linejoin="round">
    <path d="M12 16h.01" />
  <path d="M16 16h.01" />
  <path d="M3 19a2 2 0 0 0 2 2h14a2 2 0 0 0 2-2V8.5a.5.5 0 0 0-.769-.422l-4.462 2.844A.5.5 0 0 1 15 10.5v-2a.5.5 0 0 0-.769-.422L9.77 10.922A.5.5 0 0 1 9 10.5V5a2 2 0 0 0-2-2H5a2 2 0 0 0-2 2z" />
  <path d="M8 16h.01" />
  </g>
</svg>